HIERARCHY
ROOT Hips
{
     OFFSET 1.88212 96.90440 -13.34250
     CHANNELS 6 Xposition Yposition Zposition Zrotation Xrotation Yrotation
     JOINT Spine
     {
          OFFSET 0.00000 11.89050 0.00000
          CHANNELS 3 Zrotation Xrotation Yrotation
          JOINT Spine1
          {
               OFFSET -0.00000 25.65740 0.12766
               CHANNELS 3 Zrotation Xrotation Yrotation
               JOINT HEad
               {
                    OFFSET 0.00000 8.73416 0.01134
                    CHANNELS 3 Zrotation Xrotation Yrotation
                    End Site
                    {
                         OFFSET -0.29000 12.77420 2.51395
                    }
               }
               JOINT LeftShoulder1
               {
                    OFFSET 8.99000 -0.36225 -0.22000
                    CHANNELS 3 Zrotation Xrotation Yrotation
                    JOINT LeftArm
                    {
                         OFFSET 10.28270 -0.00338 0.32212
                         CHANNELS 3 Zrotation Xrotation Yrotation
                         JOINT LeftForeArm
                         {
                              OFFSET 32.76690 0.09914 -1.42434
                              CHANNELS 3 Zrotation Xrotation Yrotation
                              JOINT LeftHand
                              {
                                   OFFSET 27.56430 0.08536 1.02216
                                   CHANNELS 3 Zrotation Xrotation Yrotation
                                   End Site
                                   {
                                        OFFSET 16.74430 -0.60000 1.50291
                                   }
                              }
                         }
                    }
               }
               JOINT RightShoulder
               {
                    OFFSET -8.99000 -0.36225 -0.22000
                    CHANNELS 3 Zrotation Xrotation Yrotation
                    JOINT RightArm
                    {
                         OFFSET -10.28270 -0.00338 0.32212
                         CHANNELS 3 Zrotation Xrotation Yrotation
                         JOINT RightForeArm
                         {
                              OFFSET -32.89710 0.09914 -1.42434
                              CHANNELS 3 Zrotation Xrotation Yrotation
                              JOINT RightHand
                              {
                                   OFFSET -27.49210 0.08536 1.02216
                                   CHANNELS 3 Zrotation Xrotation Yrotation
                                   End Site
                                   {
                                        OFFSET -16.63120 -0.60000 1.50291
                                   }
                              }
                         }
                    }
               }
          }
     }
     JOINT LeftUpLeg
     {
          OFFSET 8.94580 -8.66707 0.10165
          CHANNELS 3 Zrotation Xrotation Yrotation
          JOINT LeftLeg
          {
               OFFSET 0.00000 -44.42270 1.37270
               CHANNELS 3 Zrotation Xrotation Yrotation
               JOINT LeftFoot
               {
                    OFFSET -0.25355 -42.09240 -1.46059
                    CHANNELS 3 Zrotation Xrotation Yrotation
                    JOINT LeftToes
                    {
                         OFFSET -0.04000 -4.41509 8.49910
                         CHANNELS 3 Zrotation Xrotation Yrotation
                         End Site
                         {
                              OFFSET 0.08000 -0.04745 9.77979
                         }
                    }
               }
          }
     }
     JOINT RightUpLeg
     {
          OFFSET -8.94580 -8.66707 0.10165
          CHANNELS 3 Zrotation Xrotation Yrotation
          JOINT RightLeg
          {
               OFFSET 0.00000 -44.42270 1.37270
               CHANNELS 3 Zrotation Xrotation Yrotation
               JOINT RightFoot
               {
                    OFFSET 0.25355 -42.09240 -1.46059
                    CHANNELS 3 Zrotation Xrotation Yrotation
                    JOINT RightToes
                    {
                         OFFSET 0.04000 -4.41509 8.49910
                         CHANNELS 3 Zrotation Xrotation Yrotation
                         End Site
                         {
                              OFFSET -0.08000 -0.13745 9.77979
                         }
                    }
               }
          }
     }
}
MOTION
Frames: 6
Frame Time: 0.01667
-19.76757 92.35550 -61.18362 5.98129 11.45334 153.94771 -10.68058 26.41449 -12.36175 -0.00414 0.01194 0.02289 -30.67353 24.24360 38.49754 -3.03921 7.46973 15.81092 -136.36533 -66.77247 -112.80025 -36.78829 59.78501 -84.88934 14.57856 10.19598 -6.57011 10.91937 12.11285 16.53662 86.19195 -3.01162 72.03551 6.11844 30.31471 89.26968 18.64788 13.71937 10.32794 19.24981 -8.19430 -24.76686 -33.02031 12.74170 67.33720 -4.75327 -0.00032 0.00355 6.34957 -12.75061 -56.39058 -25.77874 27.42645 15.64207 30.74630 -9.58141 -45.88781 -27.08011 0.01111 -0.00433 16.38761 -25.68436 19.09546 
-20.57702 92.31010 -61.71210 6.02655 10.94970 153.07671 -10.49801 25.44471 -12.15990 -0.00540 0.01521 0.01753 -31.81265 25.17317 39.39059 -3.28833 7.95724 15.62444 -137.97223 -66.96490 -114.29269 -35.28725 60.16588 -85.61201 14.75026 9.70864 -6.86174 11.13330 12.62402 16.22331 85.36402 -2.56726 72.18038 5.51284 29.73111 89.89053 18.65001 13.79861 10.32521 19.79339 -7.92818 -25.07270 -34.38278 10.85516 68.69388 -4.25775 0.00037 0.00308 7.03731 -14.51293 -56.27629 -26.50341 24.58063 13.74692 31.82994 -6.00964 -45.03173 -25.56920 0.00606 0.00107 15.42927 -26.20791 19.68229 
-21.41673 92.26797 -62.24716 6.08575 10.46265 152.23718 -10.31474 24.63421 -11.71281 -0.00518 0.01494 0.01496 -30.95281 25.70917 38.33933 -3.44143 8.36749 15.22426 -139.07321 -67.03999 -115.31010 -33.71846 60.41774 -86.38873 14.82763 9.47704 -6.59882 11.40747 13.00024 15.71796 84.67014 -2.28345 72.30725 4.93612 29.23274 90.56387 18.13293 13.44181 10.50109 20.13492 -7.62657 -25.21674 -35.33471 9.21342 69.81274 -3.92457 0.00082 0.00188 7.71491 -16.13884 -56.27769 -27.12671 22.07063 11.99155 32.79028 -2.35046 -43.98251 -23.88017 0.00172 0.00637 14.38425 -26.90256 20.06654 
-22.25925 92.23175 -62.80185 6.15552 10.00276 151.44179 -10.12855 23.98111 -11.07460 -0.00473 0.01436 0.01265 -29.84172 26.12788 36.96922 -3.50853 8.70285 14.66422 -139.71078 -67.01997 -115.88500 -32.14125 60.55919 -87.20756 14.93818 9.14311 -6.74259 11.73805 13.25398 15.06859 84.09698 -2.12635 72.42445 4.37163 28.82407 91.28479 18.10404 13.41321 10.50367 20.31898 -7.28668 -25.20942 -35.93146 7.83680 70.71496 -3.77168 0.00103 0.00071 8.36665 -17.60194 -56.35192 -27.68261 19.80423 10.38950 33.58037 1.22464 -42.80797 -22.09406 -0.00156 0.00880 13.23628 -27.63024 20.15811 
-23.08011 92.20512 -63.37825 6.23532 9.58005 150.69955 -9.93883 23.47808 -10.29152 -0.00429 0.01368 0.01046 -28.53350 26.41305 35.35295 -3.50136 8.97090 13.98300 -139.99203 -66.92724 -116.12018 -30.62493 60.61642 -88.02785 14.99624 8.98994 -6.55562 12.11165 13.40029 14.31235 83.63563 -2.06279 72.54470 3.79841 28.48985 92.05346 17.77635 13.16602 10.61574 20.37452 -6.90952 -25.06375 -36.23585 6.73257 71.42187 -3.79747 0.00114 -0.00016 8.99313 -18.90245 -56.50273 -28.18418 17.72361 8.94666 34.17466 4.58368 -41.54211 -20.26550 -0.00403 0.00825 11.97402 -28.19036 20.06717 
-23.85294 92.20386 -63.98964 6.33512 9.21232 150.03444 -9.73682 23.12742 -9.42103 -0.00375 0.01297 0.00830 -27.08586 26.55909 33.56474 -3.43128 9.18309 13.22126 -140.05371 -66.78045 -116.14753 -29.23993 60.62375 -88.82095 15.07549 8.80545 -6.61496 12.51467 13.45840 13.47554 83.27853 -2.05405 72.67341 3.18757 28.22841 92.87582 17.75107 13.11825 10.58784 20.31813 -6.47866 -24.81846 -36.29858 5.88921 71.94498 -3.99099 0.00123 -0.00071 9.59199 -20.04732 -56.70557 -28.63904 15.53374 7.65623 36.11184 8.35931 -38.78072 -22.07000 0.09723 0.09394 12.24996 -29.59627 17.37820 
